<svg width="24" height="24" viewBox="0 0 24 24" fill="none" xmlns="http://www.w3.org/2000/svg">
<g id="Cow">
<path id="Vector" d="M5.25 2.25C5.25 3.44347 5.72411 4.58807 6.56802 5.43198C7.41193 6.27589 8.55653 6.75 9.75 6.75H14.25C15.4435 6.75 16.5881 6.27589 17.432 5.43198C18.2759 4.58807 18.75 3.44347 18.75 2.25" stroke="#8D8D86" stroke-width="1.5" stroke-linecap="round" stroke-linejoin="round"/>
<path id="Vector_2" d="M16.5 15H7.5C5.84315 15 4.5 16.3431 4.5 18C4.5 19.6569 5.84315 21 7.5 21H16.5C18.1569 21 19.5 19.6569 19.5 18C19.5 16.3431 18.1569 15 16.5 15Z" stroke="#8D8D86" stroke-width="1.5" stroke-linecap="round" stroke-linejoin="round"/>
<path id="Vector_3" d="M7.5 18H9" stroke="#8D8D86" stroke-width="1.5" stroke-linecap="round" stroke-linejoin="round"/>
<path id="Vector_4" d="M15 18H16.5" stroke="#8D8D86" stroke-width="1.5" stroke-linecap="round" stroke-linejoin="round"/>
<path id="Vector_5" d="M9.375 12.5625C9.89277 12.5625 10.3125 12.1428 10.3125 11.625C10.3125 11.1072 9.89277 10.6875 9.375 10.6875C8.85723 10.6875 8.4375 11.1072 8.4375 11.625C8.4375 12.1428 8.85723 12.5625 9.375 12.5625Z" fill="#8D8D86"/>
<path id="Vector_6" d="M14.625 12.5625C15.1428 12.5625 15.5625 12.1428 15.5625 11.625C15.5625 11.1072 15.1428 10.6875 14.625 10.6875C14.1072 10.6875 13.6875 11.1072 13.6875 11.625C13.6875 12.1428 14.1072 12.5625 14.625 12.5625Z" fill="#8D8D86"/>
<path id="Vector_7" d="M15 6.75H18.0731C19.1127 6.74971 20.1203 7.10936 20.9248 7.76785C21.7292 8.42634 22.2808 9.34304 22.4859 10.3622C22.5062 10.4704 22.5023 10.5817 22.4747 10.6882C22.4471 10.7948 22.3964 10.8939 22.3261 10.9786C22.2559 11.0634 22.1679 11.1316 22.0683 11.1785C21.9687 11.2254 21.8601 11.2498 21.75 11.25H18" stroke="#8D8D86" stroke-width="1.5" stroke-linecap="round" stroke-linejoin="round"/>
<path id="Vector_8" d="M8.99999 6.75H5.92686C4.88728 6.74971 3.87967 7.10936 3.07523 7.76785C2.27079 8.42634 1.71915 9.34304 1.51405 10.3622C1.49383 10.4704 1.49766 10.5817 1.52528 10.6882C1.5529 10.7948 1.60363 10.8939 1.67387 10.9786C1.74411 11.0634 1.83213 11.1316 1.9317 11.1785C2.03126 11.2254 2.13993 11.2498 2.24999 11.25H5.99999" stroke="#8D8D86" stroke-width="1.5" stroke-linecap="round" stroke-linejoin="round"/>
<path id="Vector_9" d="M6 15.4012V9.75C6 8.95435 6.31607 8.19129 6.87868 7.62868C7.44129 7.06607 8.20435 6.75 9 6.75H15C15.7956 6.75 16.5587 7.06607 17.1213 7.62868C17.6839 8.19129 18 8.95435 18 9.75V15.4012" stroke="#8D8D86" stroke-width="1.5" stroke-linecap="round" stroke-linejoin="round"/>
</g>
</svg>
